<svg width="368" height="414" viewBox="0 0 368 414" fill="none" xmlns="http://www.w3.org/2000/svg">
<path d="M154 385H1V296.5M104 127V92.5M104 127V166M104 127H52.5M178 385H258.5M309.5 385H367V127H316M258.5 127V92.5M258.5 127V166M258.5 127H316M1 296.5V127H52.5M1 296.5H104V275.5V320.5M183 127V295.5L129 296.5V282.5V312.5M154 357V414M178 367V405M52.5 127C99.3333 55.5 217.6 -44.6 316 127M52.5 127C162.1 280.6 273.833 191 316 127" stroke="white"/>
<path d="M114.057 102V93.2727H115.114V97.6023H115.216L119.136 93.2727H120.517L116.852 97.2102L120.517 102H119.239L116.205 97.9432L115.114 99.1705V102H114.057Z" fill="white"/>
<path d="M268.415 102H267.307L270.511 93.2727H271.602L274.807 102H273.699L271.091 94.6534H271.023L268.415 102ZM268.824 98.5909H273.29V99.5284H268.824V98.5909Z" fill="white"/>
<path d="M194.057 181.273H195.318L198.284 188.517H198.386L201.352 181.273H202.614V190H201.625V183.369H201.54L198.812 190H197.858L195.131 183.369H195.045V190H194.057V181.273Z" fill="white"/>
<path d="M287.023 385C286.929 384.713 286.805 384.456 286.652 384.229C286.501 383.999 286.321 383.803 286.111 383.641C285.903 383.479 285.668 383.355 285.403 383.27C285.139 383.185 284.849 383.142 284.534 383.142C284.017 383.142 283.547 383.276 283.124 383.543C282.7 383.81 282.364 384.203 282.114 384.723C281.864 385.243 281.739 385.881 281.739 386.636C281.739 387.392 281.865 388.03 282.118 388.55C282.371 389.07 282.713 389.463 283.145 389.73C283.577 389.997 284.063 390.131 284.602 390.131C285.102 390.131 285.543 390.024 285.923 389.811C286.307 389.595 286.605 389.291 286.818 388.899C287.034 388.504 287.142 388.04 287.142 387.506L287.466 387.574H284.841V386.636H288.165V387.574C288.165 388.293 288.011 388.918 287.705 389.449C287.401 389.98 286.98 390.392 286.443 390.685C285.909 390.974 285.295 391.119 284.602 391.119C283.83 391.119 283.151 390.938 282.565 390.574C281.983 390.21 281.528 389.693 281.202 389.023C280.878 388.352 280.716 387.557 280.716 386.636C280.716 385.946 280.808 385.325 280.993 384.774C281.18 384.22 281.445 383.749 281.786 383.359C282.126 382.97 282.53 382.672 282.996 382.464C283.462 382.257 283.974 382.153 284.534 382.153C284.994 382.153 285.423 382.223 285.821 382.362C286.222 382.499 286.578 382.693 286.891 382.946C287.206 383.196 287.469 383.496 287.679 383.845C287.889 384.192 288.034 384.577 288.114 385H287.023Z" fill="white"/>
<path d="M185.477 370.403V364.778H186.432V370.403H185.477ZM183.142 368.068V367.114H188.767V368.068H183.142Z" fill="white"/>
<path d="M309.5 386C309.5 398.371 298.143 408.5 284 408.5C269.857 408.5 258.5 398.371 258.5 386C258.5 373.629 269.857 363.5 284 363.5C298.143 363.5 309.5 373.629 309.5 386Z" stroke="white"/>
<path d="M145.67 366.79V367.727H141.852V366.79H145.67Z" fill="white"/>
<path d="M96.4773 268.403V262.778H97.4318V268.403H96.4773ZM94.142 266.068V265.114H99.767V266.068H94.142Z" fill="white"/>
<path d="M130.67 264.79V265.727H126.852V264.79H130.67Z" fill="white"/>
<path d="M130.009 78.0929C130.06 78.3643 130.322 78.5426 130.593 78.4913L135.015 77.6548C135.286 77.6034 135.464 77.3419 135.413 77.0705C135.362 76.7992 135.1 76.6209 134.829 76.6722L130.898 77.4158L130.155 73.4855C130.103 73.2142 129.842 73.0358 129.571 73.0871C129.299 73.1385 129.121 73.4001 129.172 73.6714L130.009 78.0929ZM182.587 0.718332L130.087 77.7183L130.913 78.2817L183.413 1.28167L182.587 0.718332Z" fill="white"/>
</svg>
